<mxfile host="65bd71144e">
    <diagram id="k3MkfsP0TAj-Hgy-79KS" name="Page-1">
        <mxGraphModel dx="657" dy="420" grid="1" gridSize="10" guides="1" tooltips="1" connect="1" arrows="1" fold="1" page="1" pageScale="1" pageWidth="850" pageHeight="1100" math="0" shadow="0">
            <root>
                <mxCell id="0"/>
                <mxCell id="1" parent="0"/>
                <mxCell id="2" value="" style="whiteSpace=wrap;html=1;aspect=fixed;fillColor=#f5f5f5;fontColor=#333333;strokeColor=#666666;" vertex="1" parent="1">
                    <mxGeometry x="20" y="10" width="380" height="380" as="geometry"/>
                </mxCell>
                <mxCell id="3" value="" style="rounded=0;whiteSpace=wrap;html=1;fillColor=none;strokeColor=#ae4132;dashed=1;strokeWidth=3;" vertex="1" parent="1">
                    <mxGeometry x="30" y="20" width="220" height="360" as="geometry"/>
                </mxCell>
                <mxCell id="9" value="" style="rounded=0;whiteSpace=wrap;html=1;fillColor=#f5f5f5;fontColor=#333333;strokeColor=#666666;" vertex="1" parent="1">
                    <mxGeometry x="440" y="10" width="160" height="610" as="geometry"/>
                </mxCell>
                <mxCell id="10" value="" style="rounded=0;whiteSpace=wrap;html=1;fillColor=#fad9d5;strokeColor=#ae4132;" vertex="1" parent="1">
                    <mxGeometry x="450" y="20" width="140" height="90" as="geometry"/>
                </mxCell>
                <mxCell id="11" value="" style="rounded=0;whiteSpace=wrap;html=1;fillColor=#b0e3e6;strokeColor=#0e8088;" vertex="1" parent="1">
                    <mxGeometry x="450" y="120" width="140" height="90" as="geometry"/>
                </mxCell>
                <mxCell id="12" value="" style="rounded=0;whiteSpace=wrap;html=1;fillColor=#fad9d5;strokeColor=#ae4132;" vertex="1" parent="1">
                    <mxGeometry x="450" y="220" width="140" height="120" as="geometry"/>
                </mxCell>
                <mxCell id="14" value="" style="rounded=0;whiteSpace=wrap;html=1;fillColor=none;strokeWidth=3;dashed=1;strokeColor=#004C99;" vertex="1" parent="1">
                    <mxGeometry x="260" y="20" width="130" height="360" as="geometry"/>
                </mxCell>
                <mxCell id="4" value="" style="rounded=0;whiteSpace=wrap;html=1;fillColor=#b0e3e6;strokeColor=#0e8088;" vertex="1" parent="1">
                    <mxGeometry x="260" y="20" width="130" height="70" as="geometry"/>
                </mxCell>
                <mxCell id="18" value="" style="endArrow=classic;html=1;exitX=0.5;exitY=1;exitDx=0;exitDy=0;strokeColor=#000033;startArrow=none;" edge="1" parent="1" source="20">
                    <mxGeometry relative="1" as="geometry">
                        <mxPoint x="210" y="190" as="sourcePoint"/>
                        <mxPoint x="325" y="370" as="targetPoint"/>
                        <Array as="points">
                            <mxPoint x="325" y="270"/>
                        </Array>
                    </mxGeometry>
                </mxCell>
                <mxCell id="21" value="" style="endArrow=none;html=1;exitX=0.5;exitY=1;exitDx=0;exitDy=0;strokeColor=#000033;" edge="1" parent="1" source="4" target="20">
                    <mxGeometry relative="1" as="geometry">
                        <mxPoint x="325" y="150" as="sourcePoint"/>
                        <mxPoint x="325" y="380" as="targetPoint"/>
                        <Array as="points"/>
                    </mxGeometry>
                </mxCell>
                <mxCell id="20" value="Sticky" style="text;html=1;strokeColor=none;fillColor=none;align=center;verticalAlign=middle;whiteSpace=wrap;rounded=0;dashed=1;labelBackgroundColor=#FFF9CF;strokeWidth=4;fontColor=#050505;" vertex="1" parent="1">
                    <mxGeometry x="295" y="220" width="60" height="30" as="geometry"/>
                </mxCell>
                <mxCell id="23" value="" style="rounded=0;whiteSpace=wrap;html=1;fillColor=#d5e8d4;strokeColor=#82b366;" vertex="1" parent="1">
                    <mxGeometry x="260" y="100" width="130" height="100" as="geometry"/>
                </mxCell>
                <mxCell id="24" value="" style="rounded=0;whiteSpace=wrap;html=1;fillColor=#d5e8d4;strokeColor=#82b366;" vertex="1" parent="1">
                    <mxGeometry x="450" y="350" width="140" height="90" as="geometry"/>
                </mxCell>
                <mxCell id="25" value="&lt;span style=&quot;&quot;&gt;Card Meta&lt;br&gt;- title?&lt;br&gt;- category?&lt;/span&gt;" style="text;html=1;strokeColor=none;fillColor=none;align=left;verticalAlign=middle;whiteSpace=wrap;rounded=0;dashed=1;labelBackgroundColor=none;strokeWidth=4;fontColor=#050505;fontStyle=0" vertex="1" parent="1">
                    <mxGeometry x="460" y="38.33" width="100" height="33.33" as="geometry"/>
                </mxCell>
                <mxCell id="26" value="&lt;span style=&quot;&quot;&gt;Card Meta&lt;br&gt;- richText?&lt;br&gt;-&amp;nbsp;&lt;/span&gt;" style="text;html=1;strokeColor=none;fillColor=none;align=left;verticalAlign=middle;whiteSpace=wrap;rounded=0;dashed=1;labelBackgroundColor=none;strokeWidth=4;fontColor=#050505;fontStyle=0" vertex="1" parent="1">
                    <mxGeometry x="460" y="240" width="100" height="33.33" as="geometry"/>
                </mxCell>
                <mxCell id="28" value="" style="rounded=0;whiteSpace=wrap;html=1;fillColor=#f8cecc;strokeColor=#b85450;" vertex="1" parent="1">
                    <mxGeometry x="30" y="20" width="220" height="70" as="geometry"/>
                </mxCell>
                <mxCell id="29" value="" style="rounded=0;whiteSpace=wrap;html=1;fillColor=#f8cecc;strokeColor=#b85450;" vertex="1" parent="1">
                    <mxGeometry x="30" y="140" width="220" height="190" as="geometry"/>
                </mxCell>
                <mxCell id="30" value="" style="rounded=0;whiteSpace=wrap;html=1;dashed=1;labelBackgroundColor=none;strokeColor=#FF8000;strokeWidth=2;fontColor=#050505;fillColor=none;" vertex="1" parent="1">
                    <mxGeometry x="40" y="100" width="200" height="30" as="geometry"/>
                </mxCell>
                <mxCell id="31" value="" style="rounded=0;whiteSpace=wrap;html=1;dashed=1;labelBackgroundColor=none;strokeColor=#FF8000;strokeWidth=2;fontColor=#050505;fillColor=none;" vertex="1" parent="1">
                    <mxGeometry x="40" y="340" width="200" height="30" as="geometry"/>
                </mxCell>
                <mxCell id="32" value="Slot name: top&amp;nbsp;" style="text;html=1;strokeColor=none;fillColor=none;align=center;verticalAlign=middle;whiteSpace=wrap;rounded=0;dashed=1;labelBackgroundColor=none;strokeWidth=2;fontColor=#050505;" vertex="1" parent="1">
                    <mxGeometry x="45" y="100" width="190" height="30" as="geometry"/>
                </mxCell>
                <mxCell id="33" value="Slot name: bottom" style="text;html=1;strokeColor=none;fillColor=none;align=center;verticalAlign=middle;whiteSpace=wrap;rounded=0;dashed=1;labelBackgroundColor=none;strokeWidth=2;fontColor=#050505;" vertex="1" parent="1">
                    <mxGeometry x="45" y="340" width="190" height="30" as="geometry"/>
                </mxCell>
                <mxCell id="36" value="" style="rounded=0;whiteSpace=wrap;html=1;dashed=1;labelBackgroundColor=none;strokeColor=#FF8000;strokeWidth=2;fontColor=#050505;fillColor=none;" vertex="1" parent="1">
                    <mxGeometry x="450" y="120" width="140" height="90" as="geometry"/>
                </mxCell>
                <mxCell id="39" value="" style="rounded=0;whiteSpace=wrap;html=1;dashed=1;labelBackgroundColor=none;strokeColor=#FF8000;strokeWidth=2;fontColor=#050505;fillColor=none;" vertex="1" parent="1">
                    <mxGeometry x="450" y="350" width="140" height="90" as="geometry"/>
                </mxCell>
                <mxCell id="40" value="" style="endArrow=classic;html=1;strokeColor=#ae4132;fontColor=#050505;entryX=0.105;entryY=1.003;entryDx=0;entryDy=0;endFill=1;entryPerimeter=0;" edge="1" parent="1" target="3">
                    <mxGeometry relative="1" as="geometry">
                        <mxPoint x="260" y="440" as="sourcePoint"/>
                        <mxPoint x="360" y="280" as="targetPoint"/>
                    </mxGeometry>
                </mxCell>
                <mxCell id="42" value="&amp;nbsp; .two-column&amp;nbsp;&amp;nbsp;" style="edgeLabel;resizable=0;html=1;align=left;verticalAlign=bottom;dashed=1;labelBackgroundColor=#FFFFFF;strokeColor=#FF8000;strokeWidth=2;fontColor=#ae4132;fillColor=none;fontSize=13;fontStyle=1" connectable="0" vertex="1" parent="40">
                    <mxGeometry x="-1" relative="1" as="geometry">
                        <mxPoint x="-20" y="10" as="offset"/>
                    </mxGeometry>
                </mxCell>
                <mxCell id="44" value="" style="rounded=0;whiteSpace=wrap;html=1;fillColor=none;strokeColor=#ae4132;dashed=1;strokeWidth=3;" vertex="1" parent="1">
                    <mxGeometry x="450" y="20" width="140" height="590" as="geometry"/>
                </mxCell>
                <mxCell id="45" value="" style="endArrow=classic;html=1;strokeColor=#ae4132;fontColor=#050505;entryX=-0.007;entryY=0.897;entryDx=0;entryDy=0;endFill=1;entryPerimeter=0;" edge="1" parent="1" target="44">
                    <mxGeometry relative="1" as="geometry">
                        <mxPoint x="270" y="450" as="sourcePoint"/>
                        <mxPoint x="63.10000000000002" y="391.0799999999999" as="targetPoint"/>
                    </mxGeometry>
                </mxCell>
            </root>
        </mxGraphModel>
    </diagram>
</mxfile>